<svg width="82" height="26" viewBox="0 0 82 26" fill="none" xmlns="http://www.w3.org/2000/svg">
<path id="logo" d="M43.227 6.37002C43.227 7.28368 42.4839 8.01938 41.5616 8.01938C40.6394 8.01938 39.8968 7.28368 39.8968 6.37002C39.8968 5.45636 40.614 4.72066 41.5616 4.72066C42.51 4.74601 43.227 5.48196 43.227 6.37002V6.37002ZM36.3618 9.69459V10.1007C36.3618 10.1007 35.568 9.08514 33.8773 9.08514C31.0854 9.08514 28.9077 11.1916 28.9077 14.1098C28.9077 17.0029 31.0598 19.1344 33.8773 19.1344C35.5936 19.1344 36.3618 18.094 36.3618 18.094V18.5252C36.3618 18.7283 36.5158 18.8801 36.7205 18.8801H38.7951V9.33815H36.7205C36.5158 9.33891 36.3618 9.51688 36.3618 9.69459V9.69459ZM36.3618 15.8101C35.9779 16.3686 35.2092 16.8507 34.2872 16.8507C32.6479 16.8507 31.3925 15.8357 31.3925 14.1098C31.3925 12.3841 32.6479 11.369 34.2872 11.369C35.1839 11.369 36.0035 11.8766 36.3618 12.4095V15.8101ZM40.3323 9.33891H42.7912V18.8809H40.3323V9.33891V9.33891ZM77.0653 9.08489C75.3745 9.08489 74.5802 10.1005 74.5802 10.1005V4.74601H72.1213V18.8809H74.1964C74.4014 18.8809 74.5547 18.7032 74.5547 18.5254V18.0942C74.5547 18.0942 75.349 19.1346 77.0392 19.1346C79.8315 19.1346 82.0087 17.0036 82.0087 14.1105C82.0087 11.2174 79.8315 9.08489 77.0653 9.08489V9.08489ZM76.6553 16.8251C75.7072 16.8251 74.9646 16.3435 74.5802 15.7847V12.3841C74.9646 11.8766 75.7842 11.3437 76.6553 11.3437C78.2946 11.3437 79.5498 12.3587 79.5498 14.0844C79.5498 15.8101 78.2949 16.8251 76.6553 16.8251ZM70.8408 13.222V18.9062H68.3813V13.5008C68.3813 11.9278 67.869 11.293 66.4867 11.293C65.7441 11.293 64.9753 11.6738 64.4878 12.2322V18.8811H62.0294V9.33916H63.9755C64.1805 9.33916 64.3343 9.51688 64.3343 9.69459V10.1007C65.0516 9.36451 65.9992 9.08514 66.9468 9.08514C68.0228 9.08514 68.9195 9.39012 69.6368 9.99905C70.5074 10.7097 70.8408 11.6231 70.8408 13.222V13.222ZM56.0601 9.08489C54.3699 9.08489 53.5756 10.1005 53.5756 10.1005V4.74601H51.1166V18.8809H53.1912C53.3962 18.8809 53.55 18.7032 53.55 18.5254V18.0942C53.55 18.0942 54.3443 19.1346 56.0345 19.1346C58.8269 19.1346 61.004 17.0036 61.004 14.1105C61.0296 11.2172 58.8525 9.08489 56.0601 9.08489V9.08489ZM55.6501 16.8251C54.7025 16.8251 53.9599 16.3435 53.5756 15.7847V12.3841C53.9599 11.8766 54.7796 11.3437 55.6501 11.3437C57.2899 11.3437 58.5449 12.3587 58.5449 14.0844C58.5449 15.8101 57.2899 16.8251 55.6501 16.8251ZM48.9904 9.08489C49.733 9.08489 50.1173 9.21215 50.1173 9.21215V11.4704C50.1173 11.4704 48.0681 10.7852 46.7876 12.232V18.906H44.3282V9.33891H46.4032C46.6082 9.33891 46.7615 9.51662 46.7615 9.69433V10.1005C47.2231 9.56732 48.2222 9.08489 48.9904 9.08489V9.08489ZM23.4519 18.0179C23.324 17.7135 23.1958 17.3836 23.0678 17.1043C22.8626 16.6477 22.6576 16.2159 22.4788 15.8101L22.4532 15.7847C20.6854 11.978 18.7902 8.12103 16.7919 4.31479L16.7152 4.16217C16.505 3.76732 16.3002 3.36969 16.1007 2.9694C15.8443 2.51231 15.5884 2.03064 15.1785 1.57355C14.3588 0.558489 13.1804 0 11.9255 0C10.6445 0 9.4919 0.558492 8.64692 1.5226C8.26257 1.97918 7.98056 2.46136 7.72466 2.91845C7.52475 3.31849 7.31993 3.71611 7.11025 4.11122L7.03323 4.26383C5.06076 8.07007 3.13973 11.9273 1.37224 15.7338L1.34639 15.7842C1.16726 16.1909 0.962032 16.6221 0.757057 17.0784C0.629108 17.3578 0.501158 17.6622 0.373209 17.9921C0.0400288 18.9308 -0.0625914 19.8191 0.0658697 20.733C0.347614 22.6364 1.62813 24.2346 3.39588 24.9457C4.06198 25.225 4.75368 25.3518 5.47071 25.3518C5.67568 25.3518 5.93159 25.3264 6.13682 25.3008C6.98231 25.1994 7.85313 24.9206 8.69862 24.4384C9.74882 23.8545 10.7478 23.0174 11.8748 21.7993C13.0018 23.0174 14.0264 23.8545 15.051 24.4384C15.8968 24.9206 16.7674 25.1994 17.6126 25.3008C17.8176 25.3267 18.074 25.3518 18.2789 25.3518C18.9962 25.3518 19.7133 25.225 20.3535 24.9457C22.1469 24.2346 23.4018 22.6111 23.6838 20.733C23.8872 19.845 23.7849 18.9572 23.4519 18.0179V18.0179ZM11.8997 19.3375C10.5163 17.6118 9.61959 15.9878 9.31251 14.6178C9.18456 14.034 9.15872 13.5264 9.23575 13.0696C9.28667 12.6635 9.44072 12.308 9.64569 12.0036C10.1324 11.3188 10.9521 10.8871 11.8999 10.8871C12.848 10.8871 13.6932 11.2932 14.1544 12.0036C14.3594 12.308 14.5129 12.6637 14.5646 13.0696C14.6411 13.5267 14.6155 14.0593 14.4876 14.6178C14.1792 15.9624 13.2825 17.5867 11.8997 19.3375ZM22.1197 20.5302C21.9406 21.8498 21.0439 22.9921 19.789 23.4996C19.1743 23.7531 18.508 23.8294 17.8424 23.7531C17.2021 23.6768 16.5614 23.4738 15.8958 23.0935C14.9735 22.5855 14.0515 21.7993 12.9755 20.6316C14.6659 18.5764 15.6905 16.6981 16.0749 15.0237C16.2543 14.2368 16.2801 13.5264 16.2028 12.8663C16.1007 12.232 15.8699 11.6482 15.5114 11.1406C14.7168 9.99829 13.3846 9.33891 11.8994 9.33891C10.4142 9.33891 9.08195 10.0242 8.2879 11.1406C7.92938 11.6482 7.69856 12.232 7.5962 12.8663C7.49384 13.5264 7.51917 14.2621 7.72415 15.0237C8.10825 16.6981 9.15847 18.6015 10.8233 20.657C9.77314 21.8244 8.82528 22.6113 7.90302 23.1189C7.23692 23.4996 6.59692 23.7027 5.95666 23.7785C5.26522 23.8548 4.59886 23.7531 4.00978 23.525C2.75486 23.0174 1.85819 21.8751 1.67906 20.5556C1.60229 19.9213 1.65321 19.287 1.90962 18.5764C1.98614 18.3224 2.1146 18.0689 2.24255 17.7644C2.42193 17.3583 2.6264 16.9265 2.83163 16.4953L2.85748 16.4449C4.62471 12.6635 6.52015 8.80627 8.49262 5.05074L8.56939 4.89812C8.77462 4.51785 8.97959 4.11173 9.18431 3.73095C9.38929 3.32482 9.61959 2.94404 9.90159 2.61397C10.4395 2.00554 11.1565 1.67521 11.9508 1.67521C12.7451 1.67521 13.4622 2.00554 14.0001 2.61397C14.2821 2.94481 14.5124 3.32558 14.7173 3.73095C14.9226 4.11173 15.1276 4.51785 15.332 4.89812L15.409 5.05074C17.3514 8.82188 19.2217 12.6291 21.0189 16.4702V16.4956C21.2241 16.9022 21.4032 17.3585 21.6082 17.7652C21.7361 18.0691 21.8643 18.3226 21.9411 18.5767C22.1456 19.2358 22.2223 19.8706 22.1197 20.5302V20.5302Z" fill="#FF5A5F"/>
</svg>
